<svg width="158" height="30" viewBox="0 0 158 30" fill="none" xmlns="http://www.w3.org/2000/svg">
<path d="M33.8461 23L39.8221 5.48H45.3901L51.5341 23H48.0301L42.8221 7.808L44.0461 8.336H41.0461L42.2941 7.808L37.2541 23H33.8461ZM38.0221 18.344L39.1021 15.464H46.2061L47.2621 18.344H38.0221ZM59.4691 23.456C58.3331 23.456 57.3491 23.264 56.5171 22.88C55.7011 22.496 55.0131 21.984 54.4531 21.344C53.9091 20.704 53.5011 19.984 53.2291 19.184C52.9571 18.384 52.8211 17.568 52.8211 16.736V16.28C52.8211 15.4 52.9571 14.56 53.2291 13.76C53.5171 12.944 53.9411 12.224 54.5011 11.6C55.0611 10.96 55.7491 10.456 56.5651 10.088C57.3971 9.704 58.3571 9.512 59.4451 9.512C60.5811 9.512 61.5971 9.736 62.4931 10.184C63.3891 10.616 64.1011 11.224 64.6291 12.008C65.1731 12.792 65.4771 13.704 65.5411 14.744H62.3011C62.2211 14.072 61.9331 13.512 61.4371 13.064C60.9571 12.616 60.2931 12.392 59.4451 12.392C58.7091 12.392 58.0931 12.568 57.5971 12.92C57.1171 13.272 56.7571 13.76 56.5171 14.384C56.2771 14.992 56.1571 15.696 56.1571 16.496C56.1571 17.264 56.2691 17.96 56.4931 18.584C56.7331 19.208 57.0931 19.696 57.5731 20.048C58.0691 20.4 58.7011 20.576 59.4691 20.576C60.0451 20.576 60.5411 20.472 60.9571 20.264C61.3731 20.056 61.7011 19.768 61.9411 19.4C62.1971 19.032 62.3571 18.616 62.4211 18.152H65.6611C65.5971 19.208 65.2851 20.136 64.7251 20.936C64.1811 21.72 63.4531 22.336 62.5411 22.784C61.6451 23.232 60.6211 23.456 59.4691 23.456ZM76.2295 23V19.136H75.6775V14.84C75.6775 14.088 75.4935 13.528 75.1255 13.16C74.7575 12.792 74.1895 12.608 73.4215 12.608C73.0215 12.608 72.5415 12.616 71.9815 12.632C71.4215 12.648 70.8535 12.672 70.2775 12.704C69.7175 12.72 69.2135 12.744 68.7655 12.776V9.944C69.1335 9.912 69.5495 9.88 70.0135 9.848C70.4775 9.816 70.9495 9.8 71.4295 9.8C71.9255 9.784 72.3895 9.776 72.8215 9.776C74.1655 9.776 75.2775 9.952 76.1575 10.304C77.0535 10.656 77.7255 11.208 78.1735 11.96C78.6375 12.712 78.8695 13.696 78.8695 14.912V23H76.2295ZM72.0295 23.336C71.0855 23.336 70.2535 23.168 69.5335 22.832C68.8295 22.496 68.2775 22.016 67.8775 21.392C67.4935 20.768 67.3015 20.016 67.3015 19.136C67.3015 18.176 67.5335 17.392 67.9975 16.784C68.4775 16.176 69.1415 15.72 69.9895 15.416C70.8535 15.112 71.8615 14.96 73.0135 14.96H76.0375V16.952H72.9655C72.1975 16.952 71.6055 17.144 71.1895 17.528C70.7895 17.896 70.5895 18.376 70.5895 18.968C70.5895 19.56 70.7895 20.04 71.1895 20.408C71.6055 20.776 72.1975 20.96 72.9655 20.96C73.4295 20.96 73.8535 20.88 74.2375 20.72C74.6375 20.544 74.9655 20.256 75.2215 19.856C75.4935 19.44 75.6455 18.88 75.6775 18.176L76.4935 19.112C76.4135 20.024 76.1895 20.792 75.8215 21.416C75.4695 22.04 74.9735 22.52 74.3335 22.856C73.7095 23.176 72.9415 23.336 72.0295 23.336ZM87.8429 23.432C86.9309 23.432 86.0909 23.264 85.3229 22.928C84.5549 22.592 83.8909 22.12 83.3309 21.512C82.7709 20.904 82.3389 20.2 82.0349 19.4C81.7309 18.584 81.5789 17.704 81.5789 16.76V16.256C81.5789 15.328 81.7229 14.456 82.0109 13.64C82.3149 12.824 82.7309 12.112 83.2589 11.504C83.8029 10.896 84.4509 10.424 85.2029 10.088C85.9709 9.736 86.8189 9.56 87.7469 9.56C88.7709 9.56 89.6669 9.784 90.4349 10.232C91.2189 10.664 91.8429 11.32 92.3069 12.2C92.7709 13.08 93.0269 14.184 93.0749 15.512L92.0909 14.36V5.48H95.4269V23H92.7869V17.456H93.3629C93.3149 18.784 93.0429 19.896 92.5469 20.792C92.0509 21.672 91.3949 22.336 90.5789 22.784C89.7789 23.216 88.8669 23.432 87.8429 23.432ZM88.5869 20.624C89.2429 20.624 89.8429 20.48 90.3869 20.192C90.9309 19.888 91.3629 19.456 91.6829 18.896C92.0189 18.32 92.1869 17.648 92.1869 16.88V15.92C92.1869 15.152 92.0189 14.512 91.6829 14C91.3469 13.472 90.9069 13.072 90.3629 12.8C89.8189 12.512 89.2269 12.368 88.5869 12.368C87.8669 12.368 87.2269 12.544 86.6669 12.896C86.1229 13.232 85.6909 13.712 85.3709 14.336C85.0669 14.96 84.9149 15.688 84.9149 16.52C84.9149 17.352 85.0749 18.08 85.3949 18.704C85.7149 19.312 86.1469 19.784 86.6909 20.12C87.2509 20.456 87.8829 20.624 88.5869 20.624ZM105.056 23.456C103.936 23.456 102.952 23.264 102.104 22.88C101.272 22.496 100.576 21.984 100.016 21.344C99.4721 20.688 99.0561 19.96 98.7681 19.16C98.4961 18.36 98.3601 17.544 98.3601 16.712V16.256C98.3601 15.392 98.4961 14.56 98.7681 13.76C99.0561 12.944 99.4721 12.224 100.016 11.6C100.576 10.96 101.264 10.456 102.08 10.088C102.896 9.704 103.84 9.512 104.912 9.512C106.32 9.512 107.496 9.824 108.44 10.448C109.4 11.056 110.12 11.864 110.6 12.872C111.08 13.864 111.32 14.936 111.32 16.088V17.288H99.7761V15.248H109.232L108.2 16.256C108.2 15.424 108.08 14.712 107.84 14.12C107.6 13.528 107.232 13.072 106.736 12.752C106.256 12.432 105.648 12.272 104.912 12.272C104.176 12.272 103.552 12.44 103.04 12.776C102.528 13.112 102.136 13.6 101.864 14.24C101.608 14.864 101.48 15.616 101.48 16.496C101.48 17.312 101.608 18.04 101.864 18.68C102.12 19.304 102.512 19.8 103.04 20.168C103.568 20.52 104.24 20.696 105.056 20.696C105.872 20.696 106.536 20.536 107.048 20.216C107.56 19.88 107.888 19.472 108.032 18.992H111.104C110.912 19.888 110.544 20.672 110 21.344C109.456 22.016 108.76 22.536 107.912 22.904C107.08 23.272 106.128 23.456 105.056 23.456ZM114.107 23V9.968H116.747V15.56H116.507C116.507 14.248 116.675 13.152 117.011 12.272C117.347 11.376 117.843 10.704 118.499 10.256C119.171 9.792 120.003 9.56 120.995 9.56H121.139C122.147 9.56 122.979 9.792 123.635 10.256C124.307 10.704 124.803 11.376 125.123 12.272C125.459 13.152 125.627 14.248 125.627 15.56H124.787C124.787 14.248 124.955 13.152 125.291 12.272C125.643 11.376 126.147 10.704 126.803 10.256C127.475 9.792 128.307 9.56 129.299 9.56H129.443C130.451 9.56 131.291 9.792 131.963 10.256C132.635 10.704 133.139 11.376 133.475 12.272C133.827 13.152 134.003 14.248 134.003 15.56V23H130.667V15.248C130.667 14.432 130.459 13.784 130.043 13.304C129.627 12.808 129.035 12.56 128.267 12.56C127.499 12.56 126.883 12.816 126.419 13.328C125.955 13.824 125.723 14.496 125.723 15.344V23H122.387V15.248C122.387 14.432 122.179 13.784 121.763 13.304C121.347 12.808 120.755 12.56 119.987 12.56C119.219 12.56 118.603 12.816 118.139 13.328C117.675 13.824 117.443 14.496 117.443 15.344V23H114.107ZM138.192 23V9.968H141.528V23H138.192ZM136.368 12.464V9.968H141.528V12.464H136.368ZM139.416 8.408C138.76 8.408 138.272 8.24 137.952 7.904C137.648 7.552 137.496 7.12 137.496 6.608C137.496 6.064 137.648 5.624 137.952 5.288C138.272 4.952 138.76 4.784 139.416 4.784C140.072 4.784 140.552 4.952 140.856 5.288C141.16 5.624 141.312 6.064 141.312 6.608C141.312 7.12 141.16 7.552 140.856 7.904C140.552 8.24 140.072 8.408 139.416 8.408ZM153.269 23V19.136H152.717V14.84C152.717 14.088 152.533 13.528 152.165 13.16C151.797 12.792 151.229 12.608 150.461 12.608C150.061 12.608 149.581 12.616 149.021 12.632C148.461 12.648 147.893 12.672 147.317 12.704C146.757 12.72 146.253 12.744 145.805 12.776V9.944C146.173 9.912 146.589 9.88 147.053 9.848C147.517 9.816 147.989 9.8 148.469 9.8C148.965 9.784 149.429 9.776 149.861 9.776C151.205 9.776 152.317 9.952 153.197 10.304C154.093 10.656 154.765 11.208 155.213 11.96C155.677 12.712 155.909 13.696 155.909 14.912V23H153.269ZM149.069 23.336C148.125 23.336 147.293 23.168 146.573 22.832C145.869 22.496 145.317 22.016 144.917 21.392C144.533 20.768 144.341 20.016 144.341 19.136C144.341 18.176 144.573 17.392 145.037 16.784C145.517 16.176 146.181 15.72 147.029 15.416C147.893 15.112 148.901 14.96 150.053 14.96H153.077V16.952H150.005C149.237 16.952 148.645 17.144 148.229 17.528C147.829 17.896 147.629 18.376 147.629 18.968C147.629 19.56 147.829 20.04 148.229 20.408C148.645 20.776 149.237 20.96 150.005 20.96C150.469 20.96 150.893 20.88 151.277 20.72C151.677 20.544 152.005 20.256 152.261 19.856C152.533 19.44 152.685 18.88 152.717 18.176L153.533 19.112C153.453 20.024 153.229 20.792 152.861 21.416C152.509 22.04 152.013 22.52 151.373 22.856C150.749 23.176 149.981 23.336 149.069 23.336Z" fill="#fff"/>
<path fill-rule="evenodd" clip-rule="evenodd" d="M22 4.25H21.9462H21.9462C19.769 4.24998 18.046 4.24997 16.4538 4.52913C16.3358 4.54981 16.2186 4.572 16.1021 4.5958C14.7689 4.86799 14.1023 5.00409 13.4261 5.83226C12.75 6.66043 12.75 7.57781 12.75 9.41257V13C12.75 13.4142 12.4142 13.75 12 13.75C11.5858 13.75 11.25 13.4142 11.25 13V9.41257C11.25 7.57781 11.25 6.66043 10.5738 5.83226C9.89763 5.00409 9.23104 4.86799 7.89786 4.5958C7.78133 4.572 7.66415 4.54981 7.54616 4.52913C5.95393 4.24997 4.23097 4.24998 2.05378 4.25H2.05376H2.05375H2.05375H1.99997C1.80106 4.25 1.6103 4.32902 1.46964 4.46967C1.32899 4.61032 1.24997 4.80109 1.24997 5V15.6571L1.24997 15.6866V15.6866V15.6866V15.6867C1.24996 16.2123 1.24996 16.6501 1.27799 17.0072C1.30716 17.3786 1.37015 17.728 1.5329 18.0585C1.7874 18.5753 2.16942 18.9751 2.67413 19.2528C3.00134 19.4329 3.36037 19.5109 3.7422 19.5568C4.11386 19.6016 4.57634 19.6226 5.13739 19.6482L5.1661 19.6495C7.59524 19.76 9.29893 20.1552 11.5944 21.6309C11.8415 21.7897 12.1585 21.7897 12.4055 21.6309C14.701 20.1552 16.4047 19.76 18.8338 19.6495L18.8626 19.6482C19.4236 19.6226 19.8861 19.6016 20.2577 19.5568C20.6396 19.5109 20.9986 19.4329 21.3258 19.2528C21.8305 18.9751 22.2125 18.5753 22.467 18.0585C22.6298 17.728 22.6928 17.3786 22.722 17.0072C22.75 16.6501 22.75 16.2123 22.75 15.6866V15.6571V5C22.75 4.58579 22.4142 4.25 22 4.25ZM2.99997 21.75C2.58576 21.75 2.24997 22.0858 2.24997 22.5C2.24997 22.9142 2.58576 23.25 2.99997 23.25C4.97374 23.25 6.39684 23.3743 7.67763 23.7236C8.95053 24.0707 10.1262 24.6522 11.5839 25.624C11.8359 25.792 12.1641 25.792 12.416 25.624C13.8737 24.6522 15.0494 24.0707 16.3223 23.7236C17.6031 23.3743 19.0262 23.25 21 23.25C21.4142 23.25 21.75 22.9142 21.75 22.5C21.75 22.0858 21.4142 21.75 21 21.75C18.9737 21.75 17.3968 21.8757 15.9276 22.2764C14.585 22.6426 13.3686 23.2283 12 24.1041C10.6314 23.2283 9.41496 22.6426 8.07231 22.2764C6.6031 21.8757 5.0262 21.75 2.99997 21.75Z" fill="#fff"/>
</svg>
