<svg width="24" height="24" viewBox="0 0 24 24" fill="none" xmlns="http://www.w3.org/2000/svg">
<path fill-rule="evenodd" clip-rule="evenodd" d="M22 1.25H21.9462C19.769 1.24998 18.0461 1.24997 16.4538 1.52913C16.3358 1.54981 16.2186 1.572 16.1021 1.5958C14.7689 1.86799 14.1023 2.00409 13.4262 2.83226C12.75 3.66043 12.75 4.57781 12.75 6.41257V10C12.75 10.4142 12.4142 10.75 12 10.75C11.5858 10.75 11.25 10.4142 11.25 10V6.41257C11.25 4.57781 11.25 3.66043 10.5738 2.83226C9.89766 2.00409 9.23107 1.86799 7.89789 1.5958C7.78136 1.572 7.66418 1.54981 7.54619 1.52913C5.95396 1.24997 4.23099 1.24998 2.0538 1.25H2.05379H2.05378H2.05378H2C1.80109 1.25 1.61033 1.32902 1.46967 1.46967C1.32902 1.61032 1.25 1.80109 1.25 2V12.6571L1.25 12.6866V12.6866V12.6867C1.24999 13.2123 1.24999 13.6501 1.27802 14.0072C1.30718 14.3786 1.37018 14.728 1.53293 15.0585C1.78743 15.5753 2.16945 15.9751 2.67416 16.2528C3.00137 16.4329 3.3604 16.5109 3.74223 16.5568C4.11389 16.6016 4.57637 16.6226 5.13742 16.6482L5.16613 16.6495C7.59527 16.76 9.29896 17.1552 11.5944 18.6309C11.8415 18.7897 12.1585 18.7897 12.4056 18.6309C14.701 17.1552 16.4047 16.76 18.8339 16.6495L18.8626 16.6482C19.4236 16.6226 19.8861 16.6016 20.2578 16.5568C20.6396 16.5109 20.9986 16.4329 21.3258 16.2528C21.8306 15.9751 22.2126 15.5753 22.4671 15.0585C22.6298 14.728 22.6928 14.3786 22.722 14.0072C22.75 13.6501 22.75 13.2123 22.75 12.6866V12.6571V2C22.75 1.58579 22.4142 1.25 22 1.25ZM3 18.75C2.58579 18.75 2.25 19.0858 2.25 19.5C2.25 19.9142 2.58579 20.25 3 20.25C4.97377 20.25 6.39687 20.3743 7.67766 20.7236C8.95056 21.0707 10.1262 21.6522 11.584 22.624C11.8359 22.792 12.1641 22.792 12.416 22.624C13.8738 21.6522 15.0494 21.0707 16.3223 20.7236C17.6031 20.3743 19.0262 20.25 21 20.25C21.4142 20.25 21.75 19.9142 21.75 19.5C21.75 19.0858 21.4142 18.75 21 18.75C18.9738 18.75 17.3969 18.8757 15.9277 19.2764C14.585 19.6426 13.3686 20.2283 12 21.1041C10.6314 20.2283 9.41499 19.6426 8.07234 19.2764C6.60313 18.8757 5.02624 18.75 3 18.75Z" fill="#3581B8"/>
</svg>
