<svg width="22" height="20" viewBox="0 0 22 20" fill="none" xmlns="http://www.w3.org/2000/svg">
<path fill-rule="evenodd" clip-rule="evenodd" d="M15.0109 0.250717C13.5981 0.230275 12.1283 0.644699 10.9984 1.81005C9.86 0.646773 8.37536 0.250639 7 0.250639C3.62678 0.250639 0.25 3.04651 0.25 7.00042C0.25 10.8221 2.69523 14.0102 5.12492 16.1841C6.35323 17.283 7.61308 18.1555 8.63583 18.7561C9.1469 19.0563 9.60681 19.2933 9.98116 19.458C10.1677 19.5401 10.3419 19.6081 10.4962 19.657C10.6316 19.7 10.8167 19.75 11 19.75C11.1833 19.75 11.3684 19.7 11.5038 19.657C11.6581 19.6081 11.8323 19.5401 12.0188 19.458C12.3932 19.2933 12.8531 19.0563 13.3642 18.7561C14.3869 18.1555 15.6468 17.283 16.8751 16.1841C19.3048 14.0102 21.75 10.8221 21.75 7.00042C21.75 3.03776 18.3659 0.299261 15.0109 0.250717Z" fill="#FF4778"/>
</svg>
