<svg width="24" height="23" viewBox="0 0 24 23" fill="none" xmlns="http://www.w3.org/2000/svg">
<path fill-rule="evenodd" clip-rule="evenodd" d="M13.1785 0.987461C12.4327 0.633737 11.5674 0.633737 10.8216 0.98746C10.3053 1.23233 9.93911 1.69585 9.61459 2.21973C9.28831 2.74646 8.93033 3.46242 8.48455 4.35401L8.48454 4.35403L8.46708 4.38895L8.10779 5.10753C7.8021 5.7189 7.71321 5.87911 7.60161 5.99592C7.4865 6.1164 7.34846 6.21266 7.19561 6.27902C7.04742 6.34335 6.86635 6.37138 6.187 6.44687L5.86084 6.48311L5.8217 6.48746L5.82169 6.48746C4.75075 6.60644 3.89524 6.70149 3.24755 6.83323C2.60877 6.96316 2.01345 7.1555 1.59673 7.58066C1.0005 8.18896 0.719808 9.03923 0.836686 9.88295C0.918375 10.4726 1.28218 10.9816 1.71805 11.4663C2.16001 11.9578 2.79079 12.5435 3.58041 13.2767L3.60926 13.3035L3.9536 13.6232C4.55174 14.1786 4.70509 14.3358 4.79101 14.5031C4.87972 14.6758 4.92697 14.8668 4.92902 15.061C4.93099 15.2488 4.86729 15.4632 4.59338 16.2438L4.58043 16.2807L4.5804 16.2808C4.17618 17.4328 3.85604 18.3452 3.67428 19.055C3.49771 19.7445 3.39878 20.4216 3.62897 21.0079C3.95289 21.833 4.65465 22.4514 5.51393 22.6689C6.12284 22.823 6.77631 22.6435 7.43223 22.3847C8.10558 22.1191 8.95822 21.6928 10.0332 21.1553L10.0685 21.1377L10.9044 20.7197C11.468 20.4379 11.6218 20.3686 11.7696 20.3409C11.9219 20.3123 12.0782 20.3123 12.2306 20.3409C12.3783 20.3686 12.5321 20.4379 13.0957 20.7197L13.9317 21.1377L13.9669 21.1553C15.0419 21.6928 15.8945 22.1191 16.5679 22.3847C17.2238 22.6435 17.8773 22.823 18.4862 22.6689C19.3455 22.4514 20.0472 21.833 20.3712 21.0079C20.6013 20.4216 20.5024 19.7445 20.3258 19.055C20.1441 18.3452 19.8239 17.4328 19.4197 16.2808L19.4197 16.2806L19.4067 16.2438C19.1328 15.4632 19.0691 15.2488 19.0711 15.061C19.0731 14.8668 19.1204 14.6758 19.2091 14.5031C19.295 14.3358 19.4484 14.1786 20.0465 13.6232L20.3909 13.3035L20.4198 13.2766L20.4198 13.2766C21.2094 12.5435 21.8401 11.9578 22.2821 11.4663C22.7179 10.9816 23.0817 10.4726 23.1634 9.88295C23.2803 9.03923 22.9996 8.18896 22.4034 7.58066C21.9867 7.1555 21.3914 6.96316 20.7526 6.83323C20.1049 6.70149 19.2494 6.60644 18.1784 6.48746L18.1393 6.48311L17.8131 6.44687C17.1338 6.37138 16.9527 6.34336 16.8045 6.27902C16.6517 6.21266 16.5136 6.1164 16.3985 5.99592C16.2869 5.87911 16.198 5.71889 15.8923 5.10753L15.5331 4.38896L15.5156 4.35402C15.0698 3.46242 14.7118 2.74646 14.3855 2.21973C14.061 1.69585 13.6948 1.23234 13.1785 0.987461Z" fill="#FFD633"/>
</svg>
